<svg xmlns="http://www.w3.org/2000/svg" viewBox="0 0 521.85 142.24"><defs><style>.cls-1{fill:#fff;}</style></defs><title>of-horz-wht</title><g id="Layer_2" data-name="Layer 2"><g id="Layer_1-2" data-name="Layer 1"><path class="cls-1" d="M46.12,48.78a24.88,24.88,0,0,1-19.26,8.39A24.85,24.85,0,0,1,7.6,48.78,29.11,29.11,0,0,1,0,28.51,28.91,28.91,0,0,1,7.63,8.42,24.86,24.86,0,0,1,26.86,0,24.86,24.86,0,0,1,46.08,8.42a28.91,28.91,0,0,1,7.63,20.09A29.14,29.14,0,0,1,46.12,48.78ZM38.2,15.84a14.28,14.28,0,0,0-11.34-5.4,14.26,14.26,0,0,0-11.34,5.4,18.43,18.43,0,0,0-4.58,12.24,20.14,20.14,0,0,0,4.76,12.6q4.74,6,11.16,6t11.16-6a20.18,20.18,0,0,0,4.75-12.6A18.47,18.47,0,0,0,38.2,15.84Z"/><path class="cls-1" d="M105.48,32.83l15.34,22.9H108L94.82,33.84h-.14V55.73H84.1V1.44H98.42q8.51,0,13.32,4t4.83,12.34a17.17,17.17,0,0,1-2.95,9.83A11.76,11.76,0,0,1,105.48,32.83ZM94.68,10.08V26.42h1.37q4.82,0,7.38-1.83T106,18.07q0-4.68-2.55-6.33c-1.71-1.11-4.14-1.66-7.31-1.66Z"/><path class="cls-1" d="M149.47,55.73V1.44h15.12q11.67,0,18.94,7.74t7.27,19.48q0,11.58-7.38,19.33t-18.9,7.74Zm10.59-45.07V46.51h1.72q18.08,0,18.08-17.93T161.78,10.66Z"/><path class="cls-1" d="M231.77,1.44V55.73H221.18V1.44Z"/><path class="cls-1" d="M264.67,55.73V0h7.63l28.59,37.94H301V1.44h10.59V56.81H304L275.4,18.86h-.15V55.73Z"/><path class="cls-1" d="M374.47,44.28H355.61l-4.47,11.45H340L361.15,0h8.21L390,55.73h-11.3Zm-3-8.64-6.77-19.73h-.14l-6,19.73Z"/><path class="cls-1" d="M439.77,32.83l15.34,22.9H442.29L429.12,33.84H429V55.73H418.39V1.44h14.33q8.49,0,13.32,4t4.82,12.34a17.09,17.09,0,0,1-2.95,9.83A11.76,11.76,0,0,1,439.77,32.83ZM429,10.08V26.42h1.37q4.83,0,7.38-1.83c1.7-1.23,2.56-3.4,2.56-6.52s-.86-5.23-2.56-6.33-4.14-1.66-7.31-1.66Z"/><path class="cls-1" d="M494.13,30.82,477.29,1.44H489.6l9.5,18.86L509.47,1.44h12.38L504.72,30.82V55.73H494.13Z"/><path class="cls-1" d="M358,101.37a4.75,4.75,0,0,0-4.18-2.09,6.84,6.84,0,0,0-5,2,11.39,11.39,0,0,0-2.95,5.08h13.46A8.26,8.26,0,0,0,358,101.37Zm0,0a4.75,4.75,0,0,0-4.18-2.09,6.84,6.84,0,0,0-5,2,11.39,11.39,0,0,0-2.95,5.08h13.46A8.26,8.26,0,0,0,358,101.37Zm0,0a4.75,4.75,0,0,0-4.18-2.09,6.84,6.84,0,0,0-5,2,11.39,11.39,0,0,0-2.95,5.08h13.46A8.26,8.26,0,0,0,358,101.37Zm45.21,2.8a6.15,6.15,0,0,0-5.58-3,8.65,8.65,0,0,0-6.51,3,12.69,12.69,0,0,0-3.39,6.84,10.1,10.1,0,0,0,1.26,6.88,6,6,0,0,0,5.51,3.06,8.78,8.78,0,0,0,6.55-3.06A12.68,12.68,0,0,0,404.5,111,9.83,9.83,0,0,0,403.2,104.17Zm0,0a6.15,6.15,0,0,0-5.58-3,8.65,8.65,0,0,0-6.51,3,12.69,12.69,0,0,0-3.39,6.84,10.1,10.1,0,0,0,1.26,6.88,6,6,0,0,0,5.51,3.06,8.78,8.78,0,0,0,6.55-3.06A12.68,12.68,0,0,0,404.5,111,9.83,9.83,0,0,0,403.2,104.17ZM358,101.37a4.75,4.75,0,0,0-4.18-2.09,6.84,6.84,0,0,0-5,2,11.39,11.39,0,0,0-2.95,5.08h13.46A8.26,8.26,0,0,0,358,101.37ZM264.67,55.32v86.92h240V55.32ZM298,77a8.34,8.34,0,0,0-3.89-1.23,4,4,0,0,0-1.54.29,5.26,5.26,0,0,0-1.16.65,3.26,3.26,0,0,0-.86,1.12L290,79a7.39,7.39,0,0,0-.47,1.48c-.17.7-.28,1.16-.32,1.4s-.12.72-.22,1.44a5.05,5.05,0,0,1-.22,1.16l-1.36,8.92h8.06l-1.37,8.5H286l-4.25,26.86H271.66l4.25-26.86h-3.39l1.37-8.5h3.39L278.93,83a25.85,25.85,0,0,1,1.69-6.2,21.72,21.72,0,0,1,3.06-5.11,13,13,0,0,1,4.72-3.6,15.26,15.26,0,0,1,6.37-1.29A9.23,9.23,0,0,1,299.45,68Zm28.44,25.49a6.18,6.18,0,0,0-4-1.3,8.64,8.64,0,0,0-3.6.72,7.47,7.47,0,0,0-2.55,1.8,9.94,9.94,0,0,0-1.7,2.74,19.79,19.79,0,0,0-1.08,3.09c-.24,1-.45,2.07-.64,3.31l-2.52,15.92H300.32l5.61-35.36H316l-.57,3.68h.14a11.79,11.79,0,0,1,9.5-4.83,10.51,10.51,0,0,1,4,.87Zm41.62,9-.22,1.22H344.59a25.28,25.28,0,0,0,0,4.43,5.71,5.71,0,0,0,1.62,3.6,5.19,5.19,0,0,0,3.89,1.47q4.46,0,7.56-4.82l9.07,1.51a19.68,19.68,0,0,1-17.86,11q-8.05,0-12-5.15t-2.66-13.36a24.63,24.63,0,0,1,6.66-13.78,18.12,18.12,0,0,1,13.5-5.37,14.62,14.62,0,0,1,9.07,2.63,12,12,0,0,1,4.5,6.88A24.86,24.86,0,0,1,368.07,111.45Zm42.55,17.28h-9.94l.51-3.24H401a13.4,13.4,0,0,1-4.71,3.24,14.59,14.59,0,0,1-5.58,1.15,12.64,12.64,0,0,1-8.32-2.77,13.5,13.5,0,0,1-4.5-7.06,22.43,22.43,0,0,1-.43-9.18,25.42,25.42,0,0,1,3.31-9,21.07,21.07,0,0,1,6.73-7,16.25,16.25,0,0,1,9-2.74,12.28,12.28,0,0,1,5.25,1.15,9.34,9.34,0,0,1,3.89,3.32l.58-3.32h9.93Zm49.53,0H446.91l-9.22-15h-.15l-2.37,15H425.09l9.65-61.06h10.08l-6.12,38.66h.14l12.67-13h13.11l-17.35,15.56ZM484,103.63a2.63,2.63,0,0,0,1,1.08,13.3,13.3,0,0,0,1.44.8c.45.21,1.1.49,1.94.82a18.21,18.21,0,0,1,1.91.87,11.24,11.24,0,0,1,4.75,3.71q1.59,2.27.94,6.44a13.89,13.89,0,0,1-5.44,9.11,16.6,16.6,0,0,1-10.33,3.42,14.43,14.43,0,0,1-6.59-1.55,12.66,12.66,0,0,1-4.93-4.36l5.62-6q3,4.09,6.84,4.1a4.72,4.72,0,0,0,3-1,4.28,4.28,0,0,0,1.62-2.77,3.18,3.18,0,0,0-.07-1.55,2.5,2.5,0,0,0-1-1.26,11.65,11.65,0,0,0-1.33-.87c-.36-.19-1-.48-1.91-.86l-1.87-.79A12.13,12.13,0,0,1,475,109.5c-1-1.34-1.36-3.29-1-5.83a13.38,13.38,0,0,1,4.46-8.21A12.54,12.54,0,0,1,487,92.22a20.23,20.23,0,0,1,6.05.94,10.88,10.88,0,0,1,4.75,2.73l-5.26,5.84a6.38,6.38,0,0,0-4.89-2.45,4,4,0,0,0-2.45.86,3.32,3.32,0,0,0-1.37,2.16A2.06,2.06,0,0,0,484,103.63Zm-86.36-2.48a8.65,8.65,0,0,0-6.51,3,12.69,12.69,0,0,0-3.39,6.84,10.1,10.1,0,0,0,1.26,6.88,6,6,0,0,0,5.51,3.06,8.78,8.78,0,0,0,6.55-3.06A12.68,12.68,0,0,0,404.5,111a9.83,9.83,0,0,0-1.3-6.84A6.15,6.15,0,0,0,397.62,101.15Zm-43.81-1.87a6.84,6.84,0,0,0-5,2,11.39,11.39,0,0,0-2.95,5.08h13.46a8.26,8.26,0,0,0-1.36-5A4.75,4.75,0,0,0,353.81,99.28Zm4.18,2.09a4.75,4.75,0,0,0-4.18-2.09,6.84,6.84,0,0,0-5,2,11.39,11.39,0,0,0-2.95,5.08h13.46A8.26,8.26,0,0,0,358,101.37Zm45.21,2.8a6.15,6.15,0,0,0-5.58-3,8.65,8.65,0,0,0-6.51,3,12.69,12.69,0,0,0-3.39,6.84,10.1,10.1,0,0,0,1.26,6.88,6,6,0,0,0,5.51,3.06,8.78,8.78,0,0,0,6.55-3.06A12.68,12.68,0,0,0,404.5,111,9.83,9.83,0,0,0,403.2,104.17Zm0,0a6.15,6.15,0,0,0-5.58-3,8.65,8.65,0,0,0-6.51,3,12.69,12.69,0,0,0-3.39,6.84,10.1,10.1,0,0,0,1.26,6.88,6,6,0,0,0,5.51,3.06,8.78,8.78,0,0,0,6.55-3.06A12.68,12.68,0,0,0,404.5,111,9.83,9.83,0,0,0,403.2,104.17ZM358,101.37a4.75,4.75,0,0,0-4.18-2.09,6.84,6.84,0,0,0-5,2,11.39,11.39,0,0,0-2.95,5.08h13.46A8.26,8.26,0,0,0,358,101.37Z"/></g></g></svg>