<svg xmlns="http://www.w3.org/2000/svg" viewBox="0 0 444 444"><title>of-logo-blk</title><g id="Layer_2" data-name="Layer 2"><g id="Layer_1-2" data-name="Layer 1"><path d="M222,20a202.06,202.06,0,0,1,78.62,388.13A202.05,202.05,0,0,1,143.38,35.87,200.67,200.67,0,0,1,222,20m0-20C99.39,0,0,99.39,0,222S99.39,444,222,444s222-99.39,222-222S344.61,0,222,0Z"/><path d="M131.5,289.62l-4.22,34.55H116.92l4.27-34.55h-6.75l1.17-9.61h6.75l2.44-19.73q.93-7.87,4.26-11.58t9.52-3.7a20.82,20.82,0,0,1,8.76,2.39l-1.12,9.09a8.84,8.84,0,0,0-5.35-2.34,4.77,4.77,0,0,0-4.17,1.92q-1.26,1.92-1.92,7.08L132.72,280h9.37l-1.17,9.61Z"/><path d="M162.94,280l-.47,3.8q5.25-5,10.59-5a12.56,12.56,0,0,1,8.54,3.42L175,290.79a8.89,8.89,0,0,0-5.72-2.43,7.42,7.42,0,0,0-3.47.77,7,7,0,0,0-2.6,2.44,14.79,14.79,0,0,0-1.83,4.29,40.9,40.9,0,0,0-1.15,6.28l-2.72,22H147.14L152.58,280Z"/><path d="M195.32,305.79a10.47,10.47,0,0,0,3.37,8,12.41,12.41,0,0,0,8.72,3.14q7.26,0,11.16-5.44l7.73,4.27a24.69,24.69,0,0,1-8.3,7.59,23.51,23.51,0,0,1-10.78,2.21q-10.26,0-16.36-6.05t-6.09-16.17a24.84,24.84,0,0,1,6.7-17.72,22.12,22.12,0,0,1,16.83-7.08q9.84,0,15.52,6.37t5.76,17.21c0,.75,0,2-.14,3.65Zm23.76-8.34q-1.64-10.21-11.29-10.22-9.15,0-11.91,10.22Z"/><path d="M288.77,280l-5.43,44.16H273l.61-4.78q-6.66,5.81-13.79,5.81a18.6,18.6,0,0,1-14.29-5.95q-5.53-6-5.53-15.42,0-10.93,6.32-17.91a21.37,21.37,0,0,1,16.46-7,19.06,19.06,0,0,1,8.06,1.55,22.35,22.35,0,0,1,6.89,5.35l.7-5.82Zm-12.61,20.82a13.48,13.48,0,0,0-3.37-9.52,11.26,11.26,0,0,0-8.72-3.7,12.37,12.37,0,0,0-9.75,4.54,16.69,16.69,0,0,0-3.94,11.25,13.85,13.85,0,0,0,3.28,9.52,10.76,10.76,0,0,0,8.44,3.7A12.86,12.86,0,0,0,272,312,16.31,16.31,0,0,0,276.16,300.83Z"/><path d="M319.37,245,313,297.17,331.51,280h13.83l-23.16,20.16,18.61,24H328.27l-16.07-21-2.58,21H299.26L309,245Z"/><path d="M381.37,284.89l-5.86,5.86q-4.12-3.71-7.64-3.71a5.91,5.91,0,0,0-4,1.34,4.16,4.16,0,0,0-1.57,3.3,4.42,4.42,0,0,0,1.31,3.24,26.18,26.18,0,0,0,5.49,3.66c4,2.21,6.62,4.25,8,6.09a11.09,11.09,0,0,1,2.15,7.08,12.72,12.72,0,0,1-4.36,10.08q-4.45,3.75-11.58,3.75-9.69,0-16.07-8.77l6.79-4.73q4.17,5,8.91,5a6.3,6.3,0,0,0,4.29-1.41,4.59,4.59,0,0,0,1.62-3.65,4.1,4.1,0,0,0-1.36-3.19,19.44,19.44,0,0,0-2.3-1.69c-1.09-.72-2.58-1.57-4.45-2.57q-5-2.77-6.89-5.4a11.46,11.46,0,0,1-1.93-6.75,12.73,12.73,0,0,1,4.41-9.93,16.16,16.16,0,0,1,11.2-3.94Q375,278.56,381.37,284.89Z"/></g></g></svg>