<svg xmlns="http://www.w3.org/2000/svg" viewBox="0 0 161.95 162"><defs><style>.cls-1{fill:#fff;fill-rule:evenodd;}</style></defs><title>ig</title><g id="Layer_2" data-name="Layer 2"><g id="Instagram_Trial" data-name="Instagram Trial"><path class="cls-1" d="M149.71,146.67c-5.93,6.51-13.44,10.59-21.7,13.06-4.07,1.21-8.53,1.32-12.84,1.5-23,1-45.92,1-68.89.24-13.48-.45-25.39-4.78-34.5-14.72C6,140.44,3.22,132.29,1.34,123.81,0,117.69.49,111.62.28,105.53,0,98.38.08,91.21,0,84.05.16,71.36,0,58.66.58,46c.57-12.38,4.19-23.72,13.48-32.7C23,4.69,34,1.21,45.78.83c24.47-.79,49-1.53,73.43.37C142.73,3,157.27,17.48,160.13,39.72c2.64,20.46,1.75,41.13,1.32,61.73-.21,9.79-.23,19.59-3.15,29.19A50.94,50.94,0,0,1,149.71,146.67ZM142,132.13c3.38-4.48,4.22-10,4.47-15.13a677.71,677.71,0,0,0-.06-72.54A32,32,0,0,0,140.48,27c-6.37-8.7-15.4-11.33-25.29-11.9C93.11,13.86,71,14.22,48.9,14.88a54.61,54.61,0,0,0-11,1.67C25.48,19.49,17.66,27.13,15.83,39.7c-2.26,15.54-2,31.26-1.28,46.93-.87,10.44-.27,20.87.64,31.25,1.59,18.07,11.59,27.84,30.38,28.85,23.53,1.25,47.11,1.21,70.63.12C126.94,146.35,136.72,142.83,142,132.13Z"/><path class="cls-1" d="M116.93,101.18c-9,15.59-25.48,23.32-43.59,20.48-16-2.51-29.56-15.7-33.2-32.28-1-4.7-.37-9.5-.64-14.25l.33-2c.11-.5.21-1,.31-1.49C44.42,56.56,53.8,46.17,68.78,41.43a41.1,41.1,0,0,1,43.69,12.94C123.47,67.73,125.17,85.59,116.93,101.18Zm-15-3.54c9.27-11.91,8-24.65-3.9-36.88-7.24-7.44-16.24-8.54-25.58-5.49-9.12,3-15.49,9.15-17.64,18.94-3.81,11.43,2,24.72,13.52,30.93C79.57,111.22,93.67,108.07,101.91,97.64Z"/><path class="cls-1" d="M133.38,37.86a9.47,9.47,0,0,1-9.69,9.59A9.6,9.6,0,0,1,114.25,38c-.08-5.69,3.68-9.61,9.35-9.78A9.9,9.9,0,0,1,133.38,37.86Z"/></g></g></svg>