<svg xmlns="http://www.w3.org/2000/svg" viewBox="0 0 177 143.85"><defs><style>.cls-1{fill:#fff;}</style></defs><title>tw</title><g id="Layer_2" data-name="Layer 2"><g id="Twitter_Trial" data-name="Twitter Trial"><path class="cls-1" d="M55.67,143.85C122.46,143.85,159,88.51,159,40.53c0-1.58,0-3.14-.11-4.7A73.78,73.78,0,0,0,177,17a72.6,72.6,0,0,1-20.85,5.72,36.45,36.45,0,0,0,16-20.09,72.67,72.67,0,0,1-23.05,8.81A36.35,36.35,0,0,0,87.17,44.59,103.12,103.12,0,0,1,12.32,6.65,36.34,36.34,0,0,0,23.56,55.13,36.06,36.06,0,0,1,7.11,50.59v.46a36.32,36.32,0,0,0,29.13,35.6,36.41,36.41,0,0,1-9.57,1.28,35.71,35.71,0,0,1-6.83-.66A36.36,36.36,0,0,0,53.77,112.5,72.9,72.9,0,0,1,8.66,128a75,75,0,0,1-8.66-.5,102.79,102.79,0,0,0,55.67,16.31"/></g></g></svg>