<svg xmlns="http://www.w3.org/2000/svg" viewBox="0 0 174.3 122.01"><defs><style>.cls-1{fill:#fff;}</style></defs><title>yt</title><g id="Layer_2" data-name="Layer 2"><g id="YouTube_Trial" data-name="YouTube Trial"><path class="cls-1" d="M170.66,19.06A21.83,21.83,0,0,0,155.25,3.65C141.65,0,87.15,0,87.15,0s-54.5,0-68.1,3.65A21.83,21.83,0,0,0,3.64,19.06C0,32.65,0,61,0,61S0,89.37,3.64,103a21.83,21.83,0,0,0,15.41,15.41C32.65,122,87.15,122,87.15,122s54.5,0,68.1-3.64A21.83,21.83,0,0,0,170.66,103C174.3,89.37,174.3,61,174.3,61S174.3,32.65,170.66,19.06ZM70,87.41l-.6-52.29L115,60.75Z"/></g></g></svg>